<svg width="21" height="21" viewBox="0 0 21 21" fill="none" xmlns="http://www.w3.org/2000/svg">
<path d="M10.5 0.5C16.0228 0.5 20.5 4.97715 20.5 10.5C20.5 16.0228 16.0228 20.5 10.5 20.5C4.97715 20.5 0.5 16.0228 0.5 10.5C0.5 4.97715 4.97715 0.5 10.5 0.5ZM10.6597 14.5C8.6243 14.5 6.79182 15.3687 5.51276 16.7556C6.88039 17.8474 8.614 18.5 10.5 18.5C12.4695 18.5 14.2727 17.7883 15.6666 16.6081C14.3956 15.3074 12.6219 14.5 10.6597 14.5ZM10.5 2.5C6.08172 2.5 2.5 6.08172 2.5 10.5C2.5 12.3106 3.1015 13.9807 4.11557 15.3214C5.75639 13.5841 8.08144 12.5 10.6597 12.5C13.1441 12.5 15.3933 13.5066 17.0218 15.1342C17.9526 13.8267 18.5 12.2273 18.5 10.5C18.5 6.08172 14.9183 2.5 10.5 2.5ZM10.5 3.5C12.7091 3.5 14.5 5.29086 14.5 7.5C14.5 9.7091 12.7091 11.5 10.5 11.5C8.29086 11.5 6.5 9.7091 6.5 7.5C6.5 5.29086 8.29086 3.5 10.5 3.5ZM10.5 5.5C9.3954 5.5 8.5 6.39543 8.5 7.5C8.5 8.6046 9.3954 9.5 10.5 9.5C11.6046 9.5 12.5 8.6046 12.5 7.5C12.5 6.39543 11.6046 5.5 10.5 5.5Z" fill="#626578"/>
</svg>
