<svg width="22" height="21" viewBox="0 0 22 21" fill="none" xmlns="http://www.w3.org/2000/svg">
<path d="M11 1.75C15.8324 1.75 19.75 5.66751 19.75 10.5C19.75 15.3324 15.8324 19.25 11 19.25C6.16751 19.25 2.25 15.3324 2.25 10.5C2.25 5.66751 6.16751 1.75 11 1.75ZM11.1397 14C9.35876 14 7.75534 14.7601 6.63617 15.9736C7.83284 16.929 9.34975 17.5 11 17.5C12.7233 17.5 14.3011 16.8773 15.5208 15.8446C14.4086 14.7065 12.8567 14 11.1397 14ZM11 3.5C7.13401 3.5 4 6.63401 4 10.5C4 12.0843 4.52631 13.5456 5.41362 14.7187C6.84934 13.1986 8.88376 12.25 11.1397 12.25C13.3136 12.25 15.2816 13.1308 16.7066 14.5549C17.521 13.4109 18 12.0114 18 10.5C18 6.63401 14.866 3.5 11 3.5ZM11 4.375C12.933 4.375 14.5 5.942 14.5 7.875C14.5 9.80796 12.933 11.375 11 11.375C9.067 11.375 7.5 9.80796 7.5 7.875C7.5 5.942 9.067 4.375 11 4.375ZM11 6.125C10.0335 6.125 9.25 6.9085 9.25 7.875C9.25 8.84153 10.0335 9.625 11 9.625C11.9665 9.625 12.75 8.84153 12.75 7.875C12.75 6.9085 11.9665 6.125 11 6.125Z" fill="#C4C4C4"/>
</svg>
