<svg width="20" height="20" viewBox="0 0 20 20" fill="none" xmlns="http://www.w3.org/2000/svg">
<path d="M10.7212 2.50079L18.6597 16.2508C18.8898 16.6494 18.7532 17.1591 18.3547 17.3892C18.228 17.4623 18.0843 17.5008 17.938 17.5008H2.06087C1.60063 17.5008 1.22754 17.1277 1.22754 16.6675C1.22754 16.5212 1.26604 16.3775 1.33918 16.2508L9.27774 2.50079C9.50791 2.10221 10.0175 1.96565 10.4161 2.19577C10.5428 2.26891 10.648 2.37411 10.7212 2.50079ZM3.50425 15.8342H16.4947L9.99941 4.58413L3.50425 15.8342ZM9.16607 13.3342H10.8327V15.0008H9.16607V13.3342ZM9.16607 7.50079H10.8327V11.6675H9.16607V7.50079Z" fill="#DC6803"/>
</svg>
