<svg width="20" height="16" viewBox="0 0 20 16" fill="none" xmlns="http://www.w3.org/2000/svg">
<path d="M10.0003 0.989746C14.4937 0.989746 18.232 4.22288 19.0158 8.48975C18.232 12.7566 14.4937 15.9897 10.0003 15.9897C5.50677 15.9897 1.76846 12.7566 0.984703 8.48975C1.76846 4.22288 5.50677 0.989746 10.0003 0.989746ZM10.0003 14.3231C13.5299 14.3231 16.5503 11.8664 17.3148 8.48975C16.5503 5.1131 13.5299 2.65641 10.0003 2.65641C6.4705 2.65641 3.45019 5.1131 2.68565 8.48975C3.45019 11.8664 6.4705 14.3231 10.0003 14.3231ZM10.0003 12.2397C7.92915 12.2397 6.25022 10.5608 6.25022 8.48975C6.25022 6.41868 7.92915 4.73975 10.0003 4.73975C12.0713 4.73975 13.7503 6.41868 13.7503 8.48975C13.7503 10.5608 12.0713 12.2397 10.0003 12.2397ZM10.0003 10.5731C11.1508 10.5731 12.0836 9.64033 12.0836 8.48975C12.0836 7.33916 11.1508 6.40641 10.0003 6.40641C8.84967 6.40641 7.91689 7.33916 7.91689 8.48975C7.91689 9.64033 8.84967 10.5731 10.0003 10.5731Z" fill="#7D8093"/>
</svg>
